# xmcd
#
# Track frame offsets: 
#        150
#        23581
#        48750
#        77571
#        89115
#        121778
#        159146
#        188588
#        207634
#        227566
#        249983
#        281488
#
# Disc length: 3841 seconds
#
# Revision: 1
# Processed by: cddbd v1.5.2PL0 Copyright (c) Steve Scherf et al.
# Submitted via: ExactAudioCopy v1.0b3
#
DISCID=8c0eff0c
DTITLE=Julien Lourau - Jeff Sharel - Brighter Days
DYEAR=2008
DGENRE=Jazz
TTITLE0=Superman I
TTITLE1=Toufé Yen Yen
TTITLE2=Cotton's fields
TTITLE3=Superman II
TTITLE4=Grounded
TTITLE5=Candomblé
TTITLE6=Mix and Mingle
TTITLE7=Em Carne Viva
TTITLE8=Sax Machine
TTITLE9=Little Soldier
TTITLE10=Gypsy Woman
TTITLE11=Tatuagem
EXTD=YEAR: 2009
EXTT0=
EXTT1=
EXTT2=
EXTT3=
EXTT4=
EXTT5=
EXTT6=
EXTT7=
EXTT8=
EXTT9=
EXTT10=
EXTT11=
PLAYORDER=
